<?xml version="1.0" encoding="UTF-8"?>
<!--Generator: Apple Native CoreSVG 232.5-->
<!DOCTYPE svg
PUBLIC "-//W3C//DTD SVG 1.1//EN"
       "http://www.w3.org/Graphics/SVG/1.1/DTD/svg11.dtd">
<svg version="1.1" xmlns="http://www.w3.org/2000/svg" xmlns:xlink="http://www.w3.org/1999/xlink" width="26.1328" height="16.5527">
 <g>
  <rect height="16.5527" opacity="0" width="26.1328" x="0" y="0"/>
  <path d="M3.63281 12.7197C3.63281 12.8467 3.70605 12.9102 3.82812 12.9102L10.5713 12.9102C9.73633 11.9189 9.25293 10.3027 9.25293 8.2666C9.25293 6.24023 9.73633 4.62891 10.5518 3.64746L3.82812 3.64746C3.70605 3.64746 3.63281 3.71094 3.63281 3.83789ZM10.6104 8.2666C10.6104 10.9814 11.5381 12.6416 12.8467 12.6416C14.2139 12.6416 15.1807 10.9814 15.1807 8.2666C15.1807 5.55176 14.2139 3.90625 12.8467 3.90625C11.5381 3.90625 10.6104 5.55176 10.6104 8.2666ZM15.1855 12.9102L21.9434 12.9102C22.0654 12.9102 22.1387 12.8467 22.1387 12.7197L22.1387 3.83789C22.1387 3.71094 22.0654 3.64746 21.9434 3.64746L15.1953 3.64746C16.04 4.62891 16.5283 6.24023 16.5283 8.2666C16.5283 10.3027 16.0303 11.9189 15.1855 12.9102Z" fill="#ffffff" fill-opacity="0.85"/>
  <path d="M0 15.6104C0 16.1768 0.375977 16.5527 0.942383 16.5527L24.834 16.5527C25.4004 16.5527 25.7715 16.1768 25.7715 15.6104L25.7715 0.942383C25.7715 0.380859 25.4004 0.00488281 24.834 0.00488281L0.942383 0.00488281C0.375977 0.00488281 0 0.380859 0 0.942383ZM2.45605 13.6328L2.45605 2.9248C2.45605 2.60742 2.6123 2.46094 2.90039 2.46094L22.8711 2.46094C23.1641 2.46094 23.3154 2.60742 23.3154 2.9248L23.3154 13.6328C23.3154 13.9453 23.1641 14.0967 22.8711 14.0967L2.90039 14.0967C2.6123 14.0967 2.45605 13.9453 2.45605 13.6328Z" fill="#ffffff" fill-opacity="0.85"/>
 </g>
</svg>
