<?xml version="1.0" encoding="UTF-8"?>
<!--Generator: Apple Native CoreSVG 232.5-->
<!DOCTYPE svg
PUBLIC "-//W3C//DTD SVG 1.1//EN"
       "http://www.w3.org/Graphics/SVG/1.1/DTD/svg11.dtd">
<svg version="1.1" xmlns="http://www.w3.org/2000/svg" xmlns:xlink="http://www.w3.org/1999/xlink" width="24.0332" height="22.4244">
 <g>
  <rect height="22.4244" opacity="0" width="24.0332" x="0" y="0"/>
  <path d="M0 9.33231C0 10.4261 0.703125 11.1292 1.80664 11.1292L21.8555 11.1292C22.9541 11.1292 23.6719 10.4261 23.6719 9.33231L23.6719 8.59012C23.6719 7.50125 22.9541 6.77372 21.8555 6.77372L1.80664 6.77372C0.698242 6.77372 0 7.50125 0 8.59012ZM6.65039 22.013L17.0215 22.013C19.585 22.013 20.3467 20.4651 20.6543 18.9612L21.9727 12.6038L1.7041 12.6038L3.01758 18.9612C3.3252 20.4651 4.08203 22.013 6.65039 22.013ZM7.42188 20.1136C6.97754 20.1819 6.64551 19.9475 6.57227 19.5472L5.7666 15.0696C5.69336 14.6692 5.96191 14.347 6.40625 14.264C6.83594 14.2054 7.1875 14.4348 7.25586 14.8304L8.05664 19.3128C8.12012 19.7083 7.87109 20.0306 7.42188 20.1136ZM10.3906 20.094C9.95117 20.1136 9.62402 19.8401 9.59473 19.43L9.30176 15.0354C9.27734 14.6204 9.5752 14.3225 10.0098 14.2932C10.459 14.2542 10.7666 14.5423 10.8008 14.9524L11.0938 19.3567C11.123 19.7669 10.8203 20.0696 10.3906 20.094ZM13.3008 20.094C12.8613 20.0696 12.5635 19.7669 12.5879 19.3567L12.8809 14.9524C12.915 14.5423 13.2275 14.2542 13.6768 14.2932C14.1064 14.3225 14.4043 14.6204 14.3799 15.0354L14.0869 19.43C14.0576 19.8401 13.7305 20.1136 13.3008 20.094ZM16.25 20.1136C15.8008 20.0306 15.5518 19.7083 15.6152 19.3128L16.4111 14.8304C16.4844 14.4348 16.8359 14.2054 17.2656 14.264C17.71 14.347 17.9785 14.679 17.9053 15.0794L17.0996 19.5472C17.0264 19.9475 16.6748 20.1819 16.25 20.1136ZM3.16895 7.42313L5.84961 7.42313L9.1748 1.637C9.52148 1.03153 9.27246 0.426059 8.74023 0.147739C8.24219-0.120816 7.59766-0.0426905 7.25098 0.543247ZM17.8223 7.42313L20.5029 7.42313L16.4209 0.543247C16.0889-0.0280421 15.4492-0.11105 14.9365 0.137974C14.4043 0.426059 14.1504 1.03153 14.4971 1.637Z" fill="#ffffff" fill-opacity="0.85"/>
 </g>
</svg>
