<?xml version="1.0" encoding="UTF-8"?>
<!--Generator: Apple Native CoreSVG 232.5-->
<!DOCTYPE svg
PUBLIC "-//W3C//DTD SVG 1.1//EN"
       "http://www.w3.org/Graphics/SVG/1.1/DTD/svg11.dtd">
<svg version="1.1" xmlns="http://www.w3.org/2000/svg" xmlns:xlink="http://www.w3.org/1999/xlink" width="20.6804" height="23.5244">
 <g>
  <rect height="23.5244" opacity="0" width="20.6804" x="0" y="0"/>
  <path d="M10.9188 5.49265L13.2333 6.33249L14.913 1.70358C15.1669 1.02487 14.8495 0.34128 14.1903 0.0971392C13.5311-0.142119 12.8524 0.170381 12.6083 0.858858ZM10.9432 1.85983C5.38172 1.05417 1.28504 4.87253 0.1034 8.12448C-0.184686 8.89108 0.161994 9.55515 0.738166 9.77487C1.23621 9.94577 1.66102 9.81882 2.29578 9.52585C2.96473 9.09128 3.60926 8.92526 4.3075 9.18405C4.74207 9.3403 5.00574 9.61862 5.19129 9.88718C5.34266 10.063 5.56238 10.0434 5.65028 9.74069C6.61219 6.46921 8.59461 3.64206 10.9432 1.85983ZM13.4481 2.08933C10.6796 3.41257 8.27235 7.18698 7.3202 10.9321C7.22742 11.2885 7.50086 11.5083 7.89149 11.3667C8.70203 11.0639 9.44422 11.02 10.1034 11.2641C10.7382 11.4936 11.2557 11.9673 11.6757 12.6655C11.91 13.0415 12.3251 13.061 12.5009 12.6948C14.1415 9.22312 14.6981 4.85788 13.4481 2.08933ZM15.5282 3.52976C16.1874 6.40085 15.8798 9.83347 14.5272 12.9731C14.3954 13.2661 14.5419 13.4223 14.7811 13.3735C15.1034 13.2856 15.4745 13.2466 15.9091 13.4077C16.6122 13.6567 16.9979 14.2085 17.2323 14.9604C17.5302 15.5952 17.7841 15.9712 18.2626 16.1469C18.8485 16.3569 19.5321 16.0737 19.8153 15.2925C20.9921 12.0405 20.3182 6.48874 15.5282 3.52976ZM4.95692 21.8696C4.71766 22.519 5.04969 23.2221 5.68934 23.4516C6.3241 23.6811 7.04676 23.3491 7.27137 22.7143L11.4462 11.2495L9.13172 10.4048Z" fill="#ffffff" fill-opacity="0.85"/>
 </g>
</svg>
