<?xml version="1.0" encoding="UTF-8"?>
<!--Generator: Apple Native CoreSVG 232.5-->
<!DOCTYPE svg
PUBLIC "-//W3C//DTD SVG 1.1//EN"
       "http://www.w3.org/Graphics/SVG/1.1/DTD/svg11.dtd">
<svg version="1.1" xmlns="http://www.w3.org/2000/svg" xmlns:xlink="http://www.w3.org/1999/xlink" width="24.1846" height="18.584">
 <g>
  <rect height="18.584" opacity="0" width="24.1846" x="0" y="0"/>
  <path d="M5.74707 0C3.50098 0 1.18164 1.06445 0.239258 2.68555C0.0488281 3.0127 0 3.21777 0 3.75977L0 17.3584C0 18.1445 0.454102 18.5693 1.2207 18.5693C1.66992 18.5693 1.94336 18.4326 2.41211 18.1445C3.5498 17.3145 4.96582 16.8848 6.37695 16.8848C7.79297 16.8848 9.14062 17.3535 10.21 18.2324C10.3516 18.3496 10.5176 18.4033 10.6641 18.4033C10.9229 18.4033 11.1328 18.2178 11.1328 17.9346L11.1328 3.03223C11.1328 2.74414 11.0938 2.61719 10.8936 2.31934C9.95117 0.898438 7.95898 0 5.74707 0ZM18.0713 0C15.8643 0 13.8721 0.898438 12.9297 2.31934C12.7295 2.61719 12.6904 2.74414 12.6904 3.03223L12.6904 17.9346C12.6904 18.2178 12.9004 18.4033 13.1592 18.4033C13.3057 18.4033 13.4766 18.3496 13.6133 18.2324C14.6826 17.3535 16.0303 16.8848 17.4463 16.8848C18.8574 16.8848 20.2734 17.3145 21.4111 18.1445C21.8799 18.4326 22.1533 18.5693 22.5977 18.5693C23.3691 18.5693 23.8232 18.1445 23.8232 17.3584L23.8232 3.75977C23.8232 3.21777 23.7744 3.00781 23.584 2.68555C22.6416 1.06445 20.3223 0 18.0713 0Z" fill="#ffffff" fill-opacity="0.85"/>
 </g>
</svg>
