<?xml version="1.0" encoding="UTF-8"?>
<!--Generator: Apple Native CoreSVG 232.5-->
<!DOCTYPE svg
PUBLIC "-//W3C//DTD SVG 1.1//EN"
       "http://www.w3.org/Graphics/SVG/1.1/DTD/svg11.dtd">
<svg version="1.1" xmlns="http://www.w3.org/2000/svg" xmlns:xlink="http://www.w3.org/1999/xlink" width="24.2969" height="20.3125">
 <g>
  <rect height="20.3125" opacity="0" width="24.2969" x="0" y="0"/>
  <path d="M10.4346 13.96C9.57031 13.96 9.08691 13.5107 9.08691 12.6855L9.08691 11.9385C6.21582 11.7188 3.42285 11.1572 0 9.8291L0 7.54395C3.59375 9.2041 7.79785 9.99023 11.9678 9.99023C16.1426 9.99023 20.3418 9.2041 23.9355 7.54395L23.9355 9.8291C20.5176 11.1572 17.7197 11.7188 14.8486 11.9385L14.8486 12.6855C14.8486 13.5107 14.3701 13.96 13.501 13.96ZM3.40332 20.3027L20.5371 20.3027C22.749 20.3027 23.9355 19.126 23.9355 16.9238L23.9355 7.26074C23.9355 5.05859 22.749 3.88184 20.5371 3.88184L3.40332 3.88184C1.19141 3.88184 0 5.05859 0 7.26074L0 16.9238C0 19.126 1.19141 20.3027 3.40332 20.3027ZM6.56738 4.58496L8.78906 4.58496L8.78906 2.97363C8.78906 2.34375 9.14062 2.00195 9.78027 2.00195L14.1553 2.00195C14.7949 2.00195 15.1416 2.34863 15.1416 2.97363L15.1416 4.5752L17.3682 4.5752L17.3682 2.7832C17.3682 0.917969 16.3135 0 14.3506 0L9.57031 0C7.66113 0 6.56738 0.917969 6.56738 2.7832Z" fill="#ffffff" fill-opacity="0.85"/>
 </g>
</svg>
