<?xml version="1.0" encoding="UTF-8"?>
<!--Generator: Apple Native CoreSVG 232.5-->
<!DOCTYPE svg
PUBLIC "-//W3C//DTD SVG 1.1//EN"
       "http://www.w3.org/Graphics/SVG/1.1/DTD/svg11.dtd">
<svg version="1.1" xmlns="http://www.w3.org/2000/svg" xmlns:xlink="http://www.w3.org/1999/xlink" width="24.7705" height="19.8535">
 <g>
  <rect height="19.8535" opacity="0" width="24.7705" x="0" y="0"/>
  <path d="M3.44727 19.2725L20.957 19.2725C23.1836 19.2725 24.4092 18.0566 24.4092 15.8447L24.4092 5.55664C24.4092 3.34473 23.1836 2.13379 20.957 2.13379L18.6572 2.13379C17.9004 2.13379 17.627 2.02637 17.1045 1.52344L16.3477 0.761719C15.8057 0.234375 15.2686 0 14.2969 0L10.0781 0C9.10645 0 8.56934 0.234375 8.02734 0.761719L7.26562 1.52344C6.74316 2.02148 6.46973 2.13379 5.71289 2.13379L3.44727 2.13379C1.2207 2.13379 0 3.34473 0 5.55664L0 15.8447C0 18.0566 1.2207 19.2725 3.44727 19.2725ZM12.2021 15.9229C9.33594 15.9229 7.02637 13.6182 7.02637 10.7324C7.02637 7.85156 9.33594 5.55176 12.2021 5.55176C15.0781 5.55176 17.3779 7.85156 17.3779 10.7324C17.3779 13.6182 15.0732 15.9229 12.2021 15.9229ZM12.2021 13.7158C13.8525 13.7158 15.1758 12.3877 15.1758 10.7324C15.1758 9.07715 13.8525 7.75391 12.2021 7.75391C10.5615 7.75391 9.22852 9.07715 9.22852 10.7324C9.22852 12.3877 10.5664 13.7158 12.2021 13.7158ZM17.9688 7.15332C17.9688 6.4209 18.6035 5.78613 19.3506 5.78613C20.0879 5.78613 20.7129 6.4209 20.7129 7.15332C20.7129 7.91016 20.0928 8.51074 19.3506 8.52051C18.5938 8.52539 17.9688 7.91504 17.9688 7.15332Z" fill="#ffffff" fill-opacity="0.85"/>
 </g>
</svg>
