<?xml version="1.0" encoding="UTF-8"?>
<!--Generator: Apple Native CoreSVG 232.5-->
<!DOCTYPE svg
PUBLIC "-//W3C//DTD SVG 1.1//EN"
       "http://www.w3.org/Graphics/SVG/1.1/DTD/svg11.dtd">
<svg version="1.1" xmlns="http://www.w3.org/2000/svg" xmlns:xlink="http://www.w3.org/1999/xlink" width="24.6826" height="19.7363">
 <g>
  <rect height="19.7363" opacity="0" width="24.6826" x="0" y="0"/>
  <path d="M4.69238 5.625C4.87793 4.80957 5.24902 3.68652 5.49316 3.2373C5.80566 2.63184 6.19141 2.39258 6.91406 2.29492C7.53906 2.21191 9.22363 2.16309 12.1582 2.16309C15.0977 2.16309 16.7871 2.19727 17.4121 2.29492C18.125 2.39746 18.5059 2.63184 18.8281 3.2373C19.0723 3.68164 19.4385 4.80957 19.6338 5.625C19.7559 6.1377 19.5312 6.41602 18.9893 6.40137C17.6758 6.33789 15.8301 6.24512 12.1582 6.24512C8.50098 6.24512 6.65527 6.33789 5.33691 6.40137C4.79004 6.41602 4.56543 6.1377 4.69238 5.625ZM4.83398 13.4961C3.84766 13.4961 3.09082 12.7441 3.09082 11.7578C3.09082 10.7666 3.84766 10.0146 4.83398 10.0146C5.82031 10.0146 6.57227 10.7666 6.57227 11.7578C6.57227 12.7441 5.82031 13.4961 4.83398 13.4961ZM9.43359 13.0469C8.69141 13.0469 8.16895 12.5244 8.16895 11.7822C8.16895 11.04 8.69141 10.5176 9.43359 10.5176L14.8877 10.5176C15.6299 10.5176 16.1523 11.04 16.1523 11.7822C16.1523 12.5244 15.6299 13.0469 14.8877 13.0469ZM19.4873 13.4961C18.501 13.4961 17.749 12.7441 17.749 11.7578C17.749 10.7666 18.501 10.0146 19.4873 10.0146C20.4785 10.0146 21.2305 10.7666 21.2305 11.7578C21.2305 12.7441 20.4785 13.4961 19.4873 13.4961ZM12.1582 16.3574C15.5908 16.3574 19.9854 16.1914 21.8457 15.9766C23.4082 15.791 24.3213 14.873 24.3213 13.3838L24.3213 11.8359C24.3213 10 24.0283 8.99414 23.0957 7.7832L22.168 6.66016C21.8066 4.90234 21.1572 3.06152 20.8154 2.33398C20.2393 1.10352 19.1211 0.356445 17.6855 0.166016C16.9043 0.0585938 14.8779 0 12.1582 0C9.44824 0 7.42188 0.0634766 6.64062 0.166016C5.2002 0.34668 4.08203 1.10352 3.51074 2.33398C3.16406 3.06152 2.51953 4.90234 2.14844 6.66016L1.22559 7.7832C0.292969 8.99414 0 10 0 11.8359L0 13.3838C0 14.873 0.917969 15.7959 2.47559 15.9766C4.34082 16.1865 8.73047 16.3574 12.1582 16.3574ZM1.36719 19.248L2.58301 19.248C3.34961 19.248 3.9502 18.6523 3.9502 17.8857L3.9502 15.3174L0 13.2227L0 17.8857C0 18.6523 0.600586 19.248 1.36719 19.248ZM21.7383 19.248L22.959 19.248C23.7256 19.248 24.3213 18.6523 24.3213 17.8857L24.3213 13.2227L20.376 15.3174L20.376 17.8857C20.376 18.6523 20.9717 19.248 21.7383 19.248Z" fill="#ffffff" fill-opacity="0.85"/>
 </g>
</svg>
