<?xml version="1.0" encoding="UTF-8"?>
<!--Generator: Apple Native CoreSVG 232.5-->
<!DOCTYPE svg
PUBLIC "-//W3C//DTD SVG 1.1//EN"
       "http://www.w3.org/Graphics/SVG/1.1/DTD/svg11.dtd">
<svg version="1.1" xmlns="http://www.w3.org/2000/svg" xmlns:xlink="http://www.w3.org/1999/xlink" width="23.8086" height="21.3867">
 <g>
  <rect height="21.3867" opacity="0" width="23.8086" x="0" y="0"/>
  <path d="M0 2.73926C0 3.4082 0.566406 3.97461 1.2207 3.97461L3.90137 3.97461L5.32715 13.7012C5.56152 15.3027 6.43066 16.2646 8.04199 16.2646L19.3604 16.2646C19.9512 16.2646 20.4834 15.835 20.4834 15.1709C20.4834 14.5117 19.9512 14.0918 19.3604 14.0918L8.34961 14.0918C8.01758 14.0918 7.8125 13.8477 7.76367 13.4961L7.61719 12.5098L19.5264 12.5098C21.1328 12.5098 22.0117 11.5527 22.2412 9.93164L22.9004 5.47363C22.9199 5.33203 22.9492 5.15625 22.9492 5.00977C22.9492 4.29688 22.4756 3.78418 21.582 3.78418L6.38184 3.78418L6.26465 3.00781C6.12793 2.01172 5.66406 1.50879 4.42871 1.50879L1.2207 1.50879C0.566406 1.50879 0 2.07031 0 2.73926ZM6.9873 19.4971C6.9873 20.5518 7.83691 21.3867 8.88184 21.3867C9.93164 21.3867 10.7666 20.5518 10.7666 19.4971C10.7666 18.457 9.93164 17.6123 8.88184 17.6123C7.83691 17.6123 6.9873 18.457 6.9873 19.4971ZM15.8447 19.4971C15.8447 20.5518 16.6943 21.3867 17.7344 21.3867C18.7842 21.3867 19.624 20.5518 19.624 19.4971C19.624 18.457 18.7842 17.6123 17.7344 17.6123C16.6943 17.6123 15.8447 18.457 15.8447 19.4971Z" fill="#ffffff" fill-opacity="0.85"/>
 </g>
</svg>
