<?xml version="1.0" encoding="UTF-8"?>
<!--Generator: Apple Native CoreSVG 232.5-->
<!DOCTYPE svg
PUBLIC "-//W3C//DTD SVG 1.1//EN"
       "http://www.w3.org/Graphics/SVG/1.1/DTD/svg11.dtd">
<svg version="1.1" xmlns="http://www.w3.org/2000/svg" xmlns:xlink="http://www.w3.org/1999/xlink" width="28.125" height="23.5352">
 <g>
  <rect height="23.5352" opacity="0" width="28.125" x="0" y="0"/>
  <path d="M1.95312 23.3789L4.05273 23.3789C5.30273 23.3789 6.01562 22.583 6.01562 21.6602C6.01562 20.6592 5.48828 20.3076 4.45801 20.1904C4.02832 20.1416 4.05273 19.5898 4.41406 19.5312C6.81641 19.1016 8.35938 18.0762 8.72559 15.9668C10.2295 16.9336 12.5732 17.0752 15.0635 16.8066C15.0537 18.2666 14.834 20.1221 14.834 21.1426C14.834 22.4756 15.6982 23.3789 16.9971 23.3789L18.6865 23.3789C19.9316 23.3789 20.6494 22.583 20.6494 21.6748C20.6494 20.6885 20.1465 20.2783 19.1895 20.1514C18.9062 20.1074 18.8086 19.9512 18.8623 19.6729C19.0234 18.8037 19.5605 16.7334 19.8926 15.7324C20.5957 13.6182 21.5918 12.2168 21.5918 9.98535C21.5918 9.13086 21.7969 8.58398 21.9873 8.33008C22.7441 8.7793 23.3203 9.0332 24.1211 9.0332C25.9375 9.0332 27.7637 7.21191 27.7637 5.26367C27.7637 4.16504 26.875 4.14551 25.8936 3.52051C25.0488 2.94922 24.5166 2.17285 23.6816 1.70898C23.418 3.11523 22.3438 5.29785 20.4639 5.29785C19.3164 5.29785 18.4717 4.48242 17.9395 3.53516C17.1631 4.58984 16.8164 5.39551 14.7656 6.09863L6.2207 6.74805C6.03516 6.7627 5.87402 6.81641 5.74707 6.86035L5.05859 6.03027C3.70117 4.39453 1.56738 6.3623 2.91504 7.90039L3.68652 8.78906C3.28125 9.75586 3.06152 10.9521 3.06152 12.4316C3.06152 14.7559 2.90527 15.332 2.30469 15.8154C0.639648 17.1387 0 18.0029 0 19.4629L0 21.3428C0 22.5342 0.820312 23.3789 1.95312 23.3789ZM24.209 5.40039C23.8428 5.40039 23.5742 5.12207 23.5742 4.77051C23.5742 4.40918 23.8428 4.15039 24.209 4.15039C24.5605 4.15039 24.8291 4.40918 24.8291 4.77051C24.8291 5.12207 24.5605 5.40039 24.209 5.40039ZM20.4639 4.35547C22.0264 4.35547 22.7979 1.81641 22.7979 1.0791C22.7979 0.380859 22.4121 0 21.6895 0L19.2529 0C18.5303 0 18.1299 0.380859 18.1299 1.0791C18.1299 1.81641 18.9014 4.35547 20.4639 4.35547Z" fill="#ffffff" fill-opacity="0.85"/>
 </g>
</svg>
