<?xml version="1.0" encoding="UTF-8"?>
<!--Generator: Apple Native CoreSVG 232.5-->
<!DOCTYPE svg
PUBLIC "-//W3C//DTD SVG 1.1//EN"
       "http://www.w3.org/Graphics/SVG/1.1/DTD/svg11.dtd">
<svg version="1.1" xmlns="http://www.w3.org/2000/svg" xmlns:xlink="http://www.w3.org/1999/xlink" width="28.2715" height="15.957">
 <g>
  <rect height="15.957" opacity="0" width="28.2715" x="0" y="0"/>
  <path d="M1.68945 13.4863C2.64648 13.4863 3.38379 12.749 3.38379 11.8115L3.38379 4.13574C3.38379 3.18359 2.64648 2.44629 1.68945 2.44629C0.742188 2.44629 0 3.18359 0 4.13574L0 11.8115C0 12.749 0.742188 13.4863 1.68945 13.4863ZM7.07031 15.9473C8.66211 15.9473 9.73633 14.8291 9.73633 13.2568L9.73633 2.7002C9.73633 1.12305 8.66211 0 7.07031 0C5.47852 0 4.40918 1.12305 4.40918 2.7002L4.40918 13.2568C4.40918 14.8291 5.47852 15.9473 7.07031 15.9473ZM10.8105 10.2588L17.1484 10.2588L17.1484 5.68848L10.8105 5.68848ZM20.8838 15.9473C22.4854 15.9473 23.5547 14.8291 23.5547 13.2568L23.5547 2.7002C23.5547 1.12305 22.4854 0 20.8838 0C19.2969 0 18.2275 1.12305 18.2275 2.7002L18.2275 13.2568C18.2275 14.8291 19.2969 15.9473 20.8838 15.9473ZM26.2109 13.4863C27.1631 13.4863 27.9102 12.749 27.9102 11.8115L27.9102 4.13574C27.9102 3.18359 27.1631 2.44629 26.2109 2.44629C25.2637 2.44629 24.5264 3.18359 24.5264 4.13574L24.5264 11.8115C24.5264 12.749 25.2637 13.4863 26.2109 13.4863Z" fill="#ffffff" fill-opacity="0.85"/>
 </g>
</svg>
