<?xml version="1.0" encoding="UTF-8"?>
<!--Generator: Apple Native CoreSVG 232.5-->
<!DOCTYPE svg
PUBLIC "-//W3C//DTD SVG 1.1//EN"
       "http://www.w3.org/Graphics/SVG/1.1/DTD/svg11.dtd">
<svg version="1.1" xmlns="http://www.w3.org/2000/svg" xmlns:xlink="http://www.w3.org/1999/xlink" width="21.2598" height="22.4805">
 <g>
  <rect height="22.4805" opacity="0" width="21.2598" x="0" y="0"/>
  <path d="M15.249 21.6943L15.249 2.76367C15.249 0.991211 14.2578 0 12.4902 0L4.41406 0C2.63672 0 1.66504 0.991211 1.66504 2.76367L1.66504 21.6943ZM4.86816 10.8838C4.21875 10.8838 3.80371 10.5127 3.80371 9.93164L3.80371 3.10547C3.80371 2.51953 4.21387 2.14844 4.86816 2.14844L12.0361 2.14844C12.6904 2.14844 13.1055 2.51953 13.1055 3.10547L13.1055 9.93164C13.1055 10.5127 12.6855 10.8838 12.0361 10.8838ZM0 21.333C0 21.9629 0.50293 22.4805 1.12793 22.4805L15.7715 22.4805C16.3965 22.4805 16.9092 21.9629 16.9092 21.333C16.9092 20.7178 16.3916 20.2051 15.7715 20.2051L1.12793 20.2051C0.512695 20.2051 0 20.7129 0 21.333ZM14.458 13.3789L15.5176 13.3789C15.8447 13.3789 16.0498 13.5742 16.0498 13.9209L16.0498 17.1143C16.0498 18.5938 16.9922 19.5361 18.4814 19.5361C19.9609 19.5361 20.8984 18.5938 20.8984 17.1143L20.8984 5.07812C20.8984 4.44336 20.7227 3.9209 20.4053 3.4082L19.0674 1.24023C18.4229 0.200195 16.8896 1.08398 17.5635 2.17285L18.584 3.83789C18.7354 4.07715 18.7207 4.37012 18.5596 4.59961L17.3779 6.24512C16.9043 6.89941 16.9531 7.56348 17.4707 8.17383L19.1113 10.0684L19.1113 17.1143C19.1113 17.5049 18.8721 17.7539 18.4814 17.7539C18.0762 17.7539 17.8369 17.5049 17.8369 17.1143L17.8369 13.9209C17.8369 12.4805 16.9336 11.5967 15.5176 11.5967L14.458 11.5967Z" fill="#ffffff" fill-opacity="0.85"/>
 </g>
</svg>
