<?xml version="1.0" encoding="UTF-8"?>
<!--Generator: Apple Native CoreSVG 232.5-->
<!DOCTYPE svg
PUBLIC "-//W3C//DTD SVG 1.1//EN"
       "http://www.w3.org/Graphics/SVG/1.1/DTD/svg11.dtd">
<svg version="1.1" xmlns="http://www.w3.org/2000/svg" xmlns:xlink="http://www.w3.org/1999/xlink" width="29.6387" height="18.5645">
 <g>
  <rect height="18.5645" opacity="0" width="29.6387" x="0" y="0"/>
  <path d="M6.12305 7.4707C6.12305 6.83105 6.54297 6.42578 7.20215 6.42578L8.73535 6.42578L8.73535 4.96582C8.73535 4.29688 9.15039 3.86719 9.80469 3.86719C10.459 3.86719 10.874 4.29688 10.874 4.96582L10.874 6.42578L12.3047 6.42578C13.0176 6.42578 13.4619 6.83105 13.4619 7.4707C13.4619 8.12012 13.0176 8.53027 12.3047 8.53027L10.874 8.53027L10.874 9.99512C10.874 10.6592 10.459 11.0938 9.80469 11.0938C9.15039 11.0938 8.73535 10.6592 8.73535 9.99512L8.73535 8.53027L7.20215 8.53027C6.54297 8.53027 6.12305 8.12012 6.12305 7.4707ZM21.1328 7.45117C20.2441 7.45117 19.5166 6.74805 19.5166 5.85449C19.5166 4.95117 20.2441 4.23828 21.1328 4.23828C22.0361 4.23828 22.7441 4.95117 22.7441 5.85449C22.7441 6.74805 22.0361 7.45117 21.1328 7.45117ZM18.0225 10.6152C17.1387 10.6152 16.416 9.90723 16.416 9.01367C16.416 8.11523 17.1387 7.40723 18.0225 7.40723C18.9209 7.40723 19.6387 8.11523 19.6387 9.01367C19.6387 9.90723 18.9209 10.6152 18.0225 10.6152ZM3.97949 18.5645C5.61035 18.5645 6.72363 17.9346 7.68066 16.9092L9.36035 15.083C9.60449 14.8242 9.7998 14.7021 10.1172 14.7021L19.1602 14.7021C19.4775 14.7021 19.6729 14.8242 19.917 15.083L21.6016 16.9092C22.5586 17.9297 23.667 18.5645 25.2979 18.5645C27.6074 18.5645 29.2773 17.0605 29.2773 14.5361C29.2773 13.4326 29.0625 12.207 28.6621 10.8789C28.0518 8.84277 27.002 6.09863 26.0107 4.00879C25.1514 2.2168 24.6338 1.23535 22.3682 0.722656C20.4199 0.27832 17.793 0.00488281 14.6436 0.00488281C11.4893 0.00488281 8.85742 0.27832 6.90918 0.722656C4.64355 1.23535 4.12598 2.2168 3.27148 4.00879C2.28027 6.09863 1.22559 8.84277 0.620117 10.8789C0.219727 12.207 0 13.4326 0 14.5361C0 17.0605 1.66992 18.5645 3.97949 18.5645Z" fill="#ffffff" fill-opacity="0.85"/>
 </g>
</svg>
