<?xml version="1.0" encoding="UTF-8"?>
<!--Generator: Apple Native CoreSVG 232.5-->
<!DOCTYPE svg
PUBLIC "-//W3C//DTD SVG 1.1//EN"
       "http://www.w3.org/Graphics/SVG/1.1/DTD/svg11.dtd">
<svg version="1.1" xmlns="http://www.w3.org/2000/svg" xmlns:xlink="http://www.w3.org/1999/xlink" width="27.3779" height="28.7012">
 <g>
  <rect height="28.7012" opacity="0" width="27.3779" x="0" y="0"/>
  <path d="M25.8203 9.4873L16.3037 5.13672C15.2441 4.6582 14.3555 4.42871 13.5059 4.44336C12.6611 4.42871 11.7725 4.6582 10.708 5.13672L1.19629 9.4873C0.43457 9.83398 0 10.4785 0 11.1914C0 11.8994 0.43457 12.5537 1.19629 12.8906L4.59473 14.3994L11.1816 11.3477C11.1523 11.2939 11.1426 11.2451 11.1426 11.1914C11.1426 10.3418 12.3096 9.76074 13.5254 9.76074C14.7412 9.76074 15.9033 10.332 15.9033 11.1914C15.9033 12.0557 14.751 12.6465 13.5254 12.6465C13.1445 12.6465 12.7637 12.5879 12.4268 12.4805L6.36719 15.2637L10.708 17.2461C11.7725 17.7393 12.6611 17.9541 13.5059 17.9395C14.3555 17.9541 15.2441 17.7295 16.3037 17.2461L25.8203 12.8906C26.582 12.5391 27.0166 11.8994 27.0166 11.1914C27.0166 10.4785 26.582 9.83398 25.8203 9.4873ZM6.34766 16.9971L6.34766 22.3828C8.12988 23.4424 10.6396 24.0723 13.5059 24.0723C19.2188 24.0723 23.4814 21.5723 23.4814 18.3545L23.4814 15.7031L16.958 18.6865C15.7178 19.2578 14.5703 19.541 13.5059 19.5312C12.4463 19.541 11.2988 19.2578 10.0488 18.6865ZM3.53516 15.708L3.53516 18.3545C3.53516 19.1992 3.92578 20.1367 4.62891 20.9473L4.62891 16.2109ZM4.62891 24.2285L6.34766 24.2334L6.34766 22.3828C5.64453 21.9678 5.06348 21.4844 4.62891 20.9473ZM3.62793 24.6777L3.62793 27.1533C3.62793 28.0859 4.24316 28.7012 5.17578 28.7012L5.79102 28.7012C6.72363 28.7012 7.33887 28.0859 7.33887 27.1533L7.33887 24.6777C7.33887 23.7402 6.72363 23.1299 5.79102 23.1299L5.17578 23.1299C4.24316 23.1299 3.62793 23.7402 3.62793 24.6777Z" fill="#ffffff" fill-opacity="0.85"/>
 </g>
</svg>
