<?xml version="1.0" encoding="UTF-8"?>
<!--Generator: Apple Native CoreSVG 232.5-->
<!DOCTYPE svg
PUBLIC "-//W3C//DTD SVG 1.1//EN"
       "http://www.w3.org/Graphics/SVG/1.1/DTD/svg11.dtd">
<svg version="1.1" xmlns="http://www.w3.org/2000/svg" xmlns:xlink="http://www.w3.org/1999/xlink" width="26.0274" height="24.1977">
 <g>
  <rect height="24.1977" opacity="0" width="26.0274" x="0" y="0"/>
  <path d="M2.49126 23.1975C3.50688 24.2131 4.79594 24.1594 5.80669 22.9827L15.1915 12.1038L11.8272 8.7395L0.933639 18.1096C-0.248002 19.1252-0.29683 20.4094 0.723678 21.4348ZM20.5088 14.1741C21.1094 14.7502 21.8467 14.7844 22.4082 14.218L25.2793 11.3518C25.8262 10.8 25.792 10.0481 25.2207 9.46216L24.5567 8.78833C24.0831 8.31469 23.7461 8.24633 23.2432 8.29028L22.3057 8.3977L21.6612 7.75805L21.9297 6.60571C22.1153 5.79516 21.8272 5.01391 21.0166 4.20337L19.1075 2.29907C16.2168-0.58179 10.7627-0.864993 7.8477 2.07446C7.27641 2.65063 7.29594 3.34887 7.63286 3.81274C7.93071 4.20825 8.47758 4.43286 9.13188 4.25219C10.836 3.76391 12.4131 3.63696 13.6485 4.34008L13.0625 5.86841C12.6915 6.82055 12.8526 7.54321 13.5069 8.20727L15.4844 10.1897C16.1241 10.8293 16.7442 11.0442 17.5498 10.8782L18.8047 10.6145L19.4493 11.2541L19.337 12.2014C19.2784 12.7043 19.3565 13.051 19.8497 13.5247Z" fill="#ffffff" fill-opacity="0.85"/>
 </g>
</svg>
