<?xml version="1.0" encoding="UTF-8"?>
<!--Generator: Apple Native CoreSVG 232.5-->
<!DOCTYPE svg
PUBLIC "-//W3C//DTD SVG 1.1//EN"
       "http://www.w3.org/Graphics/SVG/1.1/DTD/svg11.dtd">
<svg version="1.1" xmlns="http://www.w3.org/2000/svg" xmlns:xlink="http://www.w3.org/1999/xlink" width="21.6323" height="23.8498">
 <g>
  <rect height="23.8498" opacity="0" width="21.6323" x="0" y="0"/>
  <path d="M1.25317 22.5889C2.88891 24.2442 5.04223 24.2589 6.66332 22.6378C7.74242 21.5587 8.79711 19.2637 9.62231 17.877L11.7366 20.0011C12.5911 20.8604 13.6409 20.8702 14.4514 20.0352L15.262 19.2247C16.1018 18.3702 16.0823 17.3741 15.2278 16.5196L7.3225 8.61434C6.45825 7.76473 5.45239 7.73543 4.60766 8.58016L3.80688 9.38094C2.97192 10.2159 2.9768 11.2511 3.83129 12.1007L5.95043 14.2149C4.57836 15.0401 2.28344 16.0948 1.20434 17.169C-0.416755 18.795-0.402106 20.9532 1.25317 22.5889ZM4.02172 21.0167C3.40649 21.0167 2.89867 20.5089 2.89867 19.8936C2.89867 19.2833 3.40649 18.7804 4.02172 18.7804C4.63696 18.7804 5.135 19.2833 5.135 19.8936C5.135 20.5089 4.63696 21.0167 4.02172 21.0167ZM16.6243 16.1485L20.3889 12.3887C21.5901 11.1925 21.5559 9.73738 20.3352 8.48738L19.6955 7.83309C18.6848 9.11238 15.8137 10.6798 15.2766 10.1427C15.1887 10.0548 15.1692 9.88387 15.2961 9.75203C16.4485 8.60945 17.2737 7.41805 17.4543 5.60164L12.4397 0.586992C11.3166-0.540938 9.51-0.00871142 8.98266 1.88582C8.29418 4.38094 7.75219 5.88973 7.36157 6.8907Z" fill="#ffffff" fill-opacity="0.85"/>
 </g>
</svg>
