<?xml version="1.0" encoding="UTF-8"?>
<!--Generator: Apple Native CoreSVG 232.5-->
<!DOCTYPE svg
PUBLIC "-//W3C//DTD SVG 1.1//EN"
       "http://www.w3.org/Graphics/SVG/1.1/DTD/svg11.dtd">
<svg version="1.1" xmlns="http://www.w3.org/2000/svg" xmlns:xlink="http://www.w3.org/1999/xlink" width="26.6052" height="25.7812">
 <g>
  <rect height="25.7812" opacity="0" width="26.6052" x="0" y="0"/>
  <path d="M9.62083 7.90171C9.61917 8.55264 9.58055 9.20392 9.50237 9.85457C8.79803 9.54653 8.28349 9.51231 8.05603 9.74609C7.51892 10.2783 8.39782 12.3584 10.7904 14.7461C13.1781 17.1387 15.2533 18.0273 15.7904 17.4854C16.0205 17.2552 15.9826 16.7229 15.6612 15.9948C16.2912 15.9179 16.9205 15.8782 17.5491 15.8745C18.0428 17.392 17.8922 18.7513 16.4545 19.3506L2.89978 25.0244C1.02478 25.8105-0.625614 24.1943 0.233761 22.2754L6.18591 9.07227C6.84401 7.61716 8.15947 7.43643 9.62083 7.90171ZM16.7113 14.0506C16.0136 14.0844 15.3145 14.1589 14.6124 14.2773C14.3417 13.9157 14.0252 13.5348 13.6601 13.1406L15.0528 11.7466C15.6515 12.4321 16.2365 13.2302 16.7113 14.0506ZM13.7359 10.4292L12.3337 11.8233C11.94 11.4637 11.5601 11.1512 11.2007 10.8852C11.3231 10.1682 11.3999 9.45446 11.4349 8.74223C12.2476 9.22275 13.042 9.81876 13.7359 10.4292Z" fill="#ffffff" fill-opacity="0.85"/>
  <path d="M9.48669 2.63184C10.2142 2.63184 10.805 2.05078 10.805 1.31836C10.805 0.59082 10.2142 0 9.48669 0C8.7445 0 8.16833 0.59082 8.16833 1.31836C8.16833 2.05078 8.7445 2.63184 9.48669 2.63184ZM11.1322 4.25293C11.0297 3.7793 10.7123 3.38379 10.1996 3.38379C9.682 3.38867 9.18396 3.83301 9.30114 4.36523C9.73083 6.64062 9.73083 8.94043 9.30114 11.2256C9.17907 11.7627 9.682 12.1973 10.1947 12.2021C10.6732 12.2021 11.0248 11.8408 11.1273 11.333C11.5717 8.95508 11.5717 6.61133 11.1322 4.25293ZM15.6976 4.19922C16.85 4.19922 17.7728 3.27148 17.7728 2.11914C17.7728 0.947266 16.85 0.0439453 15.6976 0.0439453C14.5404 0.0439453 13.6175 0.947266 13.6175 2.11914C13.6175 3.27148 14.5404 4.19922 15.6976 4.19922ZM13.8519 7.41699C14.4769 7.41699 14.9652 6.91406 14.9652 6.29883C14.9652 5.69824 14.4769 5.18555 13.8519 5.18555C13.2465 5.18555 12.7386 5.69336 12.7386 6.29883C12.7386 6.91895 13.2465 7.41699 13.8519 7.41699ZM23.9398 2.91016C24.5355 2.91016 25.0287 2.41699 25.0287 1.79688C25.0287 1.19141 24.5355 0.683594 23.9398 0.683594C23.3148 0.683594 22.8217 1.19141 22.8217 1.79688C22.8217 2.41699 23.3148 2.91016 23.9398 2.91016ZM20.8148 3.29102L19.0033 5.10254C18.642 5.47363 18.6517 6.05469 19.0033 6.41602C19.3646 6.77734 19.9603 6.79199 20.3217 6.42578L22.1332 4.61426C22.4994 4.25293 22.4847 3.65723 22.1332 3.29102C21.7621 2.93457 21.1664 2.93945 20.8148 3.29102ZM17.0306 7.15332L11.9281 12.2266C11.5668 12.583 11.5814 13.1934 11.9379 13.5498C12.2943 13.9062 12.8949 13.916 13.2513 13.5498L18.3392 8.45703C18.6664 8.125 18.6957 7.51953 18.3392 7.1582C17.973 6.77734 17.3675 6.81641 17.0306 7.15332ZM24.9261 12.041C25.6537 12.041 26.2445 11.46 26.2445 10.7178C26.2445 9.99023 25.6586 9.39941 24.9261 9.39941C24.1791 9.39941 23.6029 9.99023 23.6029 10.7178C23.6029 11.46 24.184 12.041 24.9261 12.041ZM20.5365 12.4316C21.5375 12.4316 22.3431 11.6553 22.3431 10.6543C22.3431 9.66309 21.5424 8.85742 20.5365 8.85742C19.5453 8.85742 18.764 9.66309 18.764 10.6543C18.764 11.6553 19.5453 12.4316 20.5365 12.4316ZM24.389 17.1533C25.1215 17.1533 25.7074 16.5723 25.7074 15.835C25.7074 15.0977 25.1215 14.5166 24.389 14.5166C23.6566 14.5166 23.0707 15.0977 23.0707 15.835C23.0707 16.5723 23.6566 17.1533 24.389 17.1533ZM21.2445 14.3506C18.8812 13.916 16.5375 13.9111 14.1595 14.3506C13.6664 14.4629 13.3002 14.8145 13.305 15.2881C13.305 15.8057 13.7396 16.3086 14.2718 16.2012C16.5668 15.7666 18.8519 15.7568 21.1322 16.1914C21.6498 16.3086 22.1136 15.8154 22.1185 15.2881C22.1234 14.7754 21.7084 14.4531 21.2445 14.3506Z" fill="#ffffff" fill-opacity="0.85"/>
 </g>
</svg>
