<?xml version="1.0" encoding="UTF-8"?>
<!--Generator: Apple Native CoreSVG 232.5-->
<!DOCTYPE svg
PUBLIC "-//W3C//DTD SVG 1.1//EN"
       "http://www.w3.org/Graphics/SVG/1.1/DTD/svg11.dtd">
<svg version="1.1" xmlns="http://www.w3.org/2000/svg" xmlns:xlink="http://www.w3.org/1999/xlink" width="22.1924" height="28.0859">
 <g>
  <rect height="28.0859" opacity="0" width="22.1924" x="0" y="0"/>
  <path d="M6.94336 11.6113L8.17383 25.0391L7.05566 25.0391C5.5127 25.0391 4.74609 24.1113 4.45801 22.5879L2.50488 12.29C2.1582 10.4639 3.4082 9.5166 4.66309 9.5166C5.7373 9.5166 6.81641 10.1953 6.94336 11.6113ZM13.2471 11.8359L12.5618 19.4608C11.3687 20.1527 10.6299 21.4246 10.6299 22.8467C10.6299 23.6587 10.8617 24.4118 11.2788 25.0391L9.61914 25.0391L8.42773 11.8359C8.27148 10.1025 9.66797 9.3457 10.835 9.3457C12.0068 9.3457 13.4033 10.1025 13.2471 11.8359ZM19.1699 12.29L18.2489 17.1582C17.7386 16.918 17.1621 16.7871 16.5479 16.7871C15.6649 16.7871 14.8461 17.0642 14.187 17.5527L14.7314 11.6113C14.8633 10.1953 15.9424 9.5166 17.0117 9.5166C18.2666 9.5166 19.5215 10.4639 19.1699 12.29ZM11.792 3.02246C12.0117 2.98828 12.2754 3.00293 12.4805 3.05664C12.9883 2.62695 13.6377 2.3877 14.3359 2.3877C15.415 2.3877 16.2305 2.99805 16.7188 4.00879C18.3496 4.08691 19.4678 5.34668 19.4678 7.14355C19.4678 7.70996 19.3115 8.22754 19.0527 8.67676C18.4326 8.28125 17.6904 8.07617 16.958 8.07617C15.8545 8.07617 14.7607 8.51074 14.0527 9.40918C13.3154 8.41309 12.085 7.88574 10.835 7.88574C9.59961 7.88574 8.35449 8.41309 7.62207 9.40918C6.90918 8.51074 5.8252 8.07617 4.73633 8.07617C4.00391 8.07617 3.28613 8.2666 2.6709 8.64258C2.46582 8.24219 2.37305 7.83691 2.37305 7.40723C2.37305 5.81055 3.66211 4.50684 5.23438 4.50684C5.29297 3.87207 5.88379 3.25684 6.57227 3.25195C6.80664 2.28516 7.84668 1.45996 9.24805 1.45996C10.332 1.45996 11.3086 2.06543 11.792 3.02246Z" fill="#ffffff" fill-opacity="0.85"/>
  <path d="M16.5479 26.6113C17.5244 26.6113 18.3984 26.084 18.7744 25.2832C20.0146 24.9854 20.7227 23.9697 20.7227 22.8516C20.7227 21.8359 20.0781 20.835 18.9795 20.4688C18.8672 19.165 17.8662 18.2568 16.5479 18.2568C15.2588 18.2568 14.2529 19.1455 14.082 20.4248C12.8467 20.6787 12.1045 21.709 12.1045 22.8467C12.1045 24.0527 12.9004 25.083 14.2383 25.3223C14.6973 26.0938 15.6006 26.6113 16.5479 26.6113Z" fill="#ffffff" fill-opacity="0.85"/>
 </g>
</svg>
