<?xml version="1.0" encoding="UTF-8"?>
<!--Generator: Apple Native CoreSVG 232.5-->
<!DOCTYPE svg
PUBLIC "-//W3C//DTD SVG 1.1//EN"
       "http://www.w3.org/Graphics/SVG/1.1/DTD/svg11.dtd">
<svg version="1.1" xmlns="http://www.w3.org/2000/svg" xmlns:xlink="http://www.w3.org/1999/xlink" width="28.0859" height="22.4512">
 <g>
  <rect height="22.4512" opacity="0" width="28.0859" x="0" y="0"/>
  <path d="M4.10156 2.29492C4.10156 2.762 4.28263 3.19004 4.57932 3.51074L4.35547 3.51074C3.58887 3.51074 3.16406 3.96973 3.16406 4.76562C3.16406 7.83691 6.22559 12.71 8.62305 12.71C11.0156 12.71 14.082 7.83691 14.082 4.76562C14.082 3.96973 13.6572 3.51074 12.8857 3.51074L12.657 3.51074C12.9537 3.19004 13.1348 2.762 13.1348 2.29492C13.1348 1.83961 12.9627 1.42139 12.6792 1.10352L12.8369 1.10352C15.2441 1.10352 16.4893 2.39746 16.4893 4.78516C16.4893 8.79089 13.0757 14.0419 9.8301 14.9541C9.98006 18.2593 10.997 20.0439 12.8223 20.0439C14.9414 20.0439 15.708 18.1445 16.2793 14.5654C16.9287 10.4395 18.4863 8.62793 21.1963 8.62793C23.8259 8.62793 25.34 10.3959 25.7089 14.518C25.3739 14.4064 25.0156 14.3467 24.6436 14.3457C24.1803 14.3445 23.7385 14.4352 23.3357 14.6019C23.1717 12.0568 22.4017 11.0303 21.1426 11.0303C19.8828 11.0303 19.1064 12.0703 18.6279 15.2295C17.9199 20.0537 16.2158 22.4512 12.8174 22.4512C9.48504 22.4512 7.61833 19.8373 7.42173 14.9558C4.17437 14.0481 0.756836 8.79325 0.756836 4.78516C0.756836 2.39746 2.00195 1.10352 4.4043 1.10352L4.55712 1.10352C4.27362 1.42139 4.10156 1.83961 4.10156 2.29492Z" fill="#ffffff" fill-opacity="0.85"/>
  <path d="M5.9082 4.10156C6.89453 4.10156 7.70996 3.28613 7.70996 2.29492C7.70996 1.30371 6.89453 0.488281 5.9082 0.488281C4.91699 0.488281 4.10156 1.30371 4.10156 2.29492C4.10156 3.28613 4.91699 4.10156 5.9082 4.10156ZM11.3281 4.10156C12.3193 4.10156 13.1348 3.28613 13.1348 2.29492C13.1348 1.30371 12.3193 0.488281 11.3281 0.488281C10.3418 0.488281 9.52637 1.30371 9.52637 2.29492C9.52637 3.28613 10.3418 4.10156 11.3281 4.10156ZM24.6436 21.2402C26.543 21.2402 28.0859 19.6973 28.0859 17.7881C28.0859 15.8887 26.543 14.3506 24.6436 14.3457C22.7393 14.3408 21.1963 15.8887 21.1963 17.7881C21.1963 19.6973 22.7393 21.2402 24.6436 21.2402ZM24.6484 19.0625C23.9453 19.0625 23.3691 18.4863 23.3691 17.7832C23.3691 17.0752 23.9453 16.5137 24.6484 16.5137C25.3516 16.5137 25.9229 17.0752 25.9229 17.7832C25.9229 18.4863 25.3516 19.0625 24.6484 19.0625Z" fill="#ffffff" fill-opacity="0.85"/>
 </g>
</svg>
