<?xml version="1.0" encoding="UTF-8"?>
<!--Generator: Apple Native CoreSVG 232.5-->
<!DOCTYPE svg
PUBLIC "-//W3C//DTD SVG 1.1//EN"
       "http://www.w3.org/Graphics/SVG/1.1/DTD/svg11.dtd">
<svg version="1.1" xmlns="http://www.w3.org/2000/svg" xmlns:xlink="http://www.w3.org/1999/xlink" width="23.2654" height="24.5203">
 <g>
  <rect height="24.5203" opacity="0" width="23.2654" x="0" y="0"/>
  <path d="M12.3163 23.349L21.9598 13.6957C22.7753 12.8802 22.9022 12.3627 22.9022 11.1371L22.9022 7.4408C22.9022 6.29822 22.6288 5.84412 21.7548 4.96521L19.5331 2.74841C18.6591 1.87439 18.205 1.60095 17.0673 1.60095L13.3661 1.60095C12.1356 1.60095 11.6473 1.74255 10.8319 2.56287L1.16882 12.2113C-0.38391 13.764-0.398559 15.4828 1.17859 17.0502L7.47742 23.3441C9.04968 24.9164 10.7636 24.9066 12.3163 23.349ZM15.2216 10.2777C14.3622 10.2777 13.7079 9.61365 13.7079 8.76892C13.7079 7.91931 14.3622 7.25525 15.2216 7.25525C16.0761 7.25525 16.7352 7.91931 16.7352 8.76892C16.7352 9.61365 16.0761 10.2777 15.2216 10.2777Z" fill="#ffffff" fill-opacity="0.85"/>
 </g>
</svg>
