<?xml version="1.0" encoding="UTF-8"?>
<!--Generator: Apple Native CoreSVG 232.5-->
<!DOCTYPE svg
PUBLIC "-//W3C//DTD SVG 1.1//EN"
       "http://www.w3.org/Graphics/SVG/1.1/DTD/svg11.dtd">
<svg version="1.1" xmlns="http://www.w3.org/2000/svg" xmlns:xlink="http://www.w3.org/1999/xlink" width="21.6971" height="24.6484">
 <g>
  <rect height="24.6484" opacity="0" width="21.6971" x="0" y="0"/>
  <path d="M10.6557 13.9893C14.391 13.9893 17.4232 10.957 17.4232 7.22168C17.4232 7.10449 17.4232 6.99707 17.4184 6.875C19.0834 6.68457 20.3773 5.26855 20.3773 3.54492C20.3773 1.70898 18.8783 0.209961 17.0277 0.209961C15.9389 0.209961 14.9623 0.737305 14.352 1.55762C13.2826 0.859375 12.018 0.458984 10.6557 0.458984C9.29336 0.458984 8.02871 0.859375 6.95938 1.55762C6.34903 0.737305 5.37246 0.209961 4.2836 0.209961C2.43301 0.209961 0.933986 1.70898 0.933986 3.54492C0.933986 5.26855 2.22793 6.68457 3.89297 6.875C3.88809 6.99707 3.88809 7.10449 3.88809 7.22168C3.88809 10.957 6.92031 13.9893 10.6557 13.9893ZM8.01406 6.78711C7.54531 6.78711 7.14004 6.3916 7.14004 5.89355C7.14004 5.41016 7.54531 5.00488 8.01406 5.00488C8.50235 5.00488 8.90762 5.41016 8.90762 5.89355C8.90762 6.3916 8.50235 6.78711 8.01406 6.78711ZM13.307 6.78711C12.8188 6.78711 12.4184 6.3916 12.4184 5.89355C12.4184 5.41016 12.8188 5.00488 13.307 5.00488C13.7758 5.00488 14.1811 5.41016 14.1811 5.89355C14.1811 6.3916 13.7758 6.78711 13.307 6.78711ZM4.2836 1.72852C4.9086 1.72852 5.46035 2.04102 5.78262 2.5293C5.03555 3.31055 4.45449 4.28223 4.15176 5.35156C4.08828 5.35156 4.02481 5.33691 3.97598 5.32715C3.11172 5.18555 2.46231 4.44336 2.46231 3.54492C2.46231 2.54883 3.28262 1.72852 4.2836 1.72852ZM17.0277 1.72852C18.0287 1.72852 18.849 2.54883 18.849 3.54492C18.849 4.42871 18.1996 5.19531 17.3354 5.32715C17.2719 5.33691 17.1889 5.35156 17.1596 5.35156C16.8568 4.28223 16.2758 3.31055 15.5287 2.5293C15.851 2.04102 16.4027 1.72852 17.0277 1.72852ZM10.6801 13.0908C8.96621 13.0908 7.59903 11.7188 7.59903 10.0098C7.59903 8.32031 8.98086 6.92871 10.6801 6.92871C12.3695 6.92871 13.7563 8.31055 13.7563 10.0098C13.7563 11.709 12.3598 13.0908 10.6801 13.0908ZM10.6557 10.3906C11.266 10.3906 12.1986 9.50195 12.1986 9.25781C12.1986 8.84766 11.5492 8.28613 10.6557 8.28613C9.76211 8.28613 9.0834 8.84766 9.0834 9.25781C9.0834 9.50195 10.0551 10.3906 10.6557 10.3906ZM19.2982 12.4609L15.6703 10.8203L11.6469 13.5645L9.68887 13.5645L5.66543 10.8203L2.0375 12.4609C0.265041 13.2568-0.486912 15.376 0.328518 17.1289C0.728908 17.9785 1.40762 18.5938 2.2377 18.9014C2.78457 16.9482 4.26895 15.5664 6.07559 15.5664C8.36563 15.5664 10.1527 17.793 10.1527 20.5762C10.1527 21.8066 9.79629 22.9248 9.225 23.7988C10.0941 23.9111 11.2318 23.9062 12.1059 23.7988C11.5346 22.9248 11.1781 21.8066 11.1781 20.5762C11.1781 17.793 12.9652 15.5664 15.2602 15.5664C17.0668 15.5664 18.5512 16.9482 19.0932 18.9014C19.9232 18.5938 20.6068 17.9785 21.0072 17.1289C21.8178 15.376 21.0658 13.2568 19.2982 12.4609ZM6.07559 24.6484C7.82852 24.6484 9.18594 22.832 9.18594 20.5762C9.18594 18.3496 7.82852 16.5283 6.07559 16.5283C4.32754 16.5283 2.96035 18.3496 2.96035 20.5762C2.96035 22.832 4.32754 24.6484 6.07559 24.6484ZM15.2602 24.6484C17.0033 24.6484 18.3705 22.832 18.3705 20.5762C18.3705 18.3496 17.0033 16.5283 15.2602 16.5283C13.5072 16.5283 12.1449 18.3496 12.1449 20.5762C12.1449 22.832 13.5072 24.6484 15.2602 24.6484Z" fill="#ffffff" fill-opacity="0.85"/>
 </g>
</svg>
