<?xml version="1.0" encoding="UTF-8"?>
<!--Generator: Apple Native CoreSVG 232.5-->
<!DOCTYPE svg
PUBLIC "-//W3C//DTD SVG 1.1//EN"
       "http://www.w3.org/Graphics/SVG/1.1/DTD/svg11.dtd">
<svg version="1.1" xmlns="http://www.w3.org/2000/svg" xmlns:xlink="http://www.w3.org/1999/xlink" width="26.6433" height="27.0907">
 <g>
  <rect height="27.0907" opacity="0" width="26.6433" x="0" y="0"/>
  <path d="M15.6483 3.28169L16.9358 8.06116C15.9166 9.24769 14.8471 10.5595 13.8695 11.8494C13.913 11.6501 13.9399 11.4436 13.9491 11.2309C13.9784 10.8159 13.6317 10.6596 13.2508 10.9331C12.5624 11.4311 11.5614 11.8754 10.3358 12.2075C9.11509 12.5346 8.02134 12.6469 7.17661 12.559C6.71274 12.5151 6.48325 12.8276 6.71763 13.1645C7.63071 14.6 9.3104 15.1225 10.9901 14.6782C11.5738 14.5213 12.0986 14.2636 12.5365 13.9215C12.2617 14.5643 12.09 15.2797 12.0448 16.0844C11.2 16.3432 10.4188 16.8608 9.81821 17.6274C9.40126 18.0992 9.14597 18.6502 8.98732 19.1666C6.05434 18.815 3.81984 16.6807 2.90415 13.2524L1.27329 7.12935C0.765478 5.25923 1.50767 3.9897 3.40708 3.477L11.9715 1.18696C13.8709 0.67915 15.1502 1.40669 15.6483 3.28169ZM6.32212 7.75435C5.52622 7.96919 5.077 8.7602 5.28696 9.50727C5.37485 9.83442 5.55063 9.99556 5.72153 9.95649C5.98521 9.88325 6.07798 9.45356 6.73228 9.27778C7.39146 9.10688 7.67954 9.43403 7.95786 9.35591C8.11899 9.31685 8.19712 9.07759 8.11411 8.75532C7.90903 8.00825 7.1229 7.5395 6.32212 7.75435ZM11.576 6.34321C10.7801 6.55806 10.3358 7.35884 10.536 8.10102C10.6239 8.42329 10.8045 8.59419 10.9803 8.55024C11.2391 8.477 11.3319 8.0522 11.9911 7.87153C12.6502 7.69575 12.9383 8.01802 13.2069 7.95454C13.3778 7.9106 13.4461 7.67134 13.3583 7.34907C13.1629 6.602 12.3719 6.13813 11.576 6.34321Z" fill="#ffffff" fill-opacity="0.85"/>
  <path d="M21.6151 5.20063C20.8778 5.92329 18.0604 8.70649 15.5262 12.0805C17.909 12.4028 19.9745 13.7993 21.1512 15.8842C23.329 12.1977 24.5545 8.60395 24.9598 7.57856C25.9315 5.04438 23.2997 3.59907 21.6151 5.20063ZM16.3758 16.8852C17.2743 17.4907 17.9627 18.311 18.3143 19.1362C18.9295 18.8872 19.4129 18.4965 19.8377 17.9399C19.9256 17.8325 20.0086 17.7153 20.0868 17.603C19.3006 15.2641 16.825 13.5698 14.3543 13.7309C14.2762 13.8432 14.1932 13.9653 14.1249 14.0825C13.7538 14.6879 13.5731 15.3129 13.5731 15.9526C14.452 15.9526 15.492 16.2895 16.3758 16.8852ZM8.70493 24.3608C10.9217 26.1918 14.5643 26.0502 16.3905 23.8286C17.909 22.0024 17.6795 19.7758 15.9168 18.3061C14.3104 16.9926 12.1424 17.061 10.9608 18.5405C9.80845 19.9174 10.6043 21.1284 9.9647 21.8608C9.37388 22.5541 8.60728 22.3295 8.18247 22.8422C7.79673 23.3305 8.07505 23.8774 8.70493 24.3608Z" fill="#ffffff" fill-opacity="0.85"/>
 </g>
</svg>
