<?xml version="1.0" encoding="UTF-8"?>
<!--Generator: Apple Native CoreSVG 232.5-->
<!DOCTYPE svg
PUBLIC "-//W3C//DTD SVG 1.1//EN"
       "http://www.w3.org/Graphics/SVG/1.1/DTD/svg11.dtd">
<svg version="1.1" xmlns="http://www.w3.org/2000/svg" xmlns:xlink="http://www.w3.org/1999/xlink" width="19.0137" height="26.5723">
 <g>
  <rect height="26.5723" opacity="0" width="19.0137" x="0" y="0"/>
  <path d="M3.64746 22.0898L15.0049 22.0898C17.2998 22.0898 18.6523 20.6396 18.6523 18.3691L18.6523 10.8447C18.6523 8.09082 18.4131 6.29883 18.0811 4.7998C17.5391 2.12891 16.1768 0.688477 13.5986 0.322266C12.7148 0.195312 11.1719 0.0927734 9.32617 0.0927734C7.48047 0.0927734 5.93262 0.195312 5.05371 0.322266C2.4707 0.688477 1.11328 2.12891 0.571289 4.7998C0.239258 6.29883 0 8.09082 0 10.8447L0 18.3691C0 20.6396 1.35254 22.0898 3.64746 22.0898ZM6.72852 4.00879C6.24512 4.00879 5.9082 3.66699 5.9082 3.18359C5.9082 2.69531 6.24512 2.35352 6.72852 2.35352L11.9189 2.35352C12.4072 2.35352 12.7539 2.69531 12.7539 3.18359C12.7539 3.65723 12.4072 4.00879 11.9189 4.00879ZM9.32617 15.1221C6.875 15.1025 4.90234 15.0098 3.85254 14.8828C3.16895 14.7949 2.82715 14.3359 2.82715 13.6816L2.82715 11.1279C2.82715 9.2041 3.04688 7.47559 3.16406 6.85547C3.2666 6.31348 3.63281 5.92285 4.16504 5.86426C5.24414 5.72754 6.7627 5.65918 9.32617 5.64453C11.8701 5.64941 13.3984 5.72754 14.4678 5.86426C15.0098 5.92285 15.3857 6.31348 15.4834 6.85547C15.6006 7.47559 15.8203 9.2041 15.8203 11.1279L15.8203 13.6816C15.8203 14.3408 15.4785 14.7998 14.7949 14.8828C13.4521 15.0342 11.4746 15.1172 9.32617 15.1221ZM4.49707 19.6533C3.68652 19.6533 3.0957 19.0527 3.0957 18.2373C3.0957 17.4316 3.69629 16.8262 4.49707 16.8262C5.3125 16.8262 5.91309 17.4316 5.91309 18.2373C5.91309 19.0527 5.29785 19.6533 4.49707 19.6533ZM14.1455 19.6582C13.335 19.6582 12.7197 19.0479 12.7197 18.2373C12.7197 17.4365 13.335 16.8213 14.1455 16.8213C14.9463 16.8213 15.5566 17.4365 15.5566 18.2373C15.5566 19.0479 14.9365 19.6582 14.1455 19.6582ZM1.80176 26.5723L2.51953 26.5723C2.89062 26.5723 3.10547 26.4404 3.30566 26.123L6.48926 20.9961L3.95996 20.9961L1.21094 25.4102C0.90332 25.9082 1.1377 26.5723 1.80176 26.5723ZM2.91016 25.2686L15.5811 25.2686L15.5811 23.374L2.91016 23.374ZM15.9814 26.5723L16.582 26.5723C17.2363 26.5723 17.5732 25.9033 17.2168 25.332L14.5312 20.9961L12.002 20.9961L15.1855 26.123C15.3857 26.4404 15.6104 26.5723 15.9814 26.5723Z" fill="#ffffff" fill-opacity="0.85"/>
 </g>
</svg>
