<?xml version="1.0" encoding="UTF-8"?>
<!--Generator: Apple Native CoreSVG 232.5-->
<!DOCTYPE svg
PUBLIC "-//W3C//DTD SVG 1.1//EN"
       "http://www.w3.org/Graphics/SVG/1.1/DTD/svg11.dtd">
<svg version="1.1" xmlns="http://www.w3.org/2000/svg" xmlns:xlink="http://www.w3.org/1999/xlink" width="20.2295" height="24.4824">
 <g>
  <rect height="24.4824" opacity="0" width="20.2295" x="0" y="0"/>
  <path d="M6.91406 19.4141C6.42578 19.4141 6.09863 19.1016 6.07422 18.6133L5.77637 8.23242C5.75684 7.74414 6.0791 7.42676 6.58691 7.42676C7.0752 7.42676 7.41211 7.73926 7.42676 8.22266L7.73926 18.6035C7.75391 19.0918 7.42676 19.4141 6.91406 19.4141ZM9.93652 19.4141C9.43848 19.4141 9.10645 19.1016 9.10645 18.6182L9.10645 8.22266C9.10645 7.73926 9.43848 7.42676 9.93652 7.42676C10.4297 7.42676 10.7666 7.73926 10.7666 8.22266L10.7666 18.6182C10.7666 19.1016 10.4297 19.4141 9.93652 19.4141ZM12.959 19.4141C12.4463 19.4141 12.1191 19.0918 12.1338 18.6035L12.4414 8.22754C12.4609 7.73926 12.793 7.42676 13.2812 7.42676C13.7891 7.42676 14.1113 7.74414 14.0918 8.23242L13.7939 18.6133C13.7695 19.1016 13.4424 19.4141 12.959 19.4141ZM5.23438 4.5459L7.48047 4.5459L7.48047 2.62695C7.48047 2.21191 7.76855 1.95312 8.2373 1.95312L11.6211 1.95312C12.0898 1.95312 12.3779 2.21191 12.3779 2.62695L12.3779 4.5459L14.624 4.5459L14.624 2.54883C14.624 0.917969 13.6084 0 11.7871 0L8.07129 0C6.25 0 5.23438 0.917969 5.23438 2.54883ZM1.09863 6.1084L18.7744 6.1084C19.3994 6.1084 19.8682 5.6543 19.8682 5.0293C19.8682 4.41406 19.3994 3.96484 18.7744 3.96484L1.09863 3.96484C0.478516 3.96484 0 4.41406 0 5.0293C0 5.65918 0.478516 6.1084 1.09863 6.1084ZM5.42969 22.5488L14.4434 22.5488C16.1133 22.5488 17.1436 21.6211 17.2168 19.9463L17.8662 5.9082L2.00195 5.9082L2.65625 19.9512C2.73438 21.626 3.75 22.5488 5.42969 22.5488Z" fill="#ffffff" fill-opacity="0.85"/>
 </g>
</svg>
