<svg data-v-528fb24a="" viewBox="0 0 36 36" fill="none" xmlns="http://www.w3.org/2000/svg" width="256" height="256" id="avatar"><title data-v-528fb24a="">Simple Avatar</title><desc data-v-528fb24a="">CREATED BY XUAN TANG, MORE INFO AT TXSTC55.GITHUB.IO</desc><rect data-v-528fb24a="" width="36" height="36" fill="#08415c"></rect><mask data-v-528fb24a="" id="mask__foreground" maskUnits="userSpaceOnUse" x="0" y="0" width="100" height="100"><rect data-v-528fb24a="" x="0" y="0" width="36" height="36" transform="translate(-0.11804770864285707 -4.077586705695618) rotate(-17.857654563755148 19.401227092003083 13.983681262827734)scale(1.0957236900927692)" rx="33.8755682552646" fill="white"></rect><!----></mask><mask data-v-528fb24a="" id="mask__background" maskUnits="userSpaceOnUse" x="0" y="0" width="100" height="100"><rect data-v-528fb24a="" id="test" x="0" y="0" width="36" height="36" fill="white"></rect><rect data-v-528fb24a="" x="3" y="3" width="30" height="30" transform="translate(-0.11804770864285707 -4.077586705695618) rotate(-17.857654563755148 19.401227092003083 13.983681262827734)scale(1.0957236900927692)" rx="33.8755682552646" fill="black"></rect><!----></mask><rect data-v-528fb24a="" x="0" y="0" width="36" height="36" fill="#30c5d2" mask="url(#mask__foreground)"></rect><g data-v-528fb24a="" mask="url(#mask__foreground)"><g data-v-528fb24a="" transform="translate(0.26389655835503234 -4.778817217838574) rotate(-9.255508082596942 26.366778687881737 27.776679657439374)"><g data-v-528fb24a="" transform=""><!----><path data-v-528fb24a="" d="M9.977005026587397,22.421843023650627 a0.7001382265641962, 0.6593176799172227 0 0,0 16.775432065036195, -0.9144060596767309" fill="#ffffee"></path></g><rect data-v-528fb24a="" x="9.87782119837734" y="14.996759181505855" width="2.342940881384428" height="1.644056467927192" rx="1" stroke="none" fill="#ffffee"></rect><rect data-v-528fb24a="" x="23.77923792023823" y="14.996759181505855" width="2.342940881384428" height="1.644056467927192" rx="1" stroke="none" fill="#ffffee"></rect></g></g><g data-v-528fb24a="" mask="url(#mask__background)"><g data-v-528fb24a="" transform="translate(0.26389655835503234 -4.778817217838574) rotate(-9.255508082596942 26.366778687881737 27.776679657439374)"><g data-v-528fb24a="" transform=""><!----><path data-v-528fb24a="" d="M9.977005026587397,22.421843023650627 a0.7001382265641962, 0.6593176799172227 0 0,0 16.775432065036195, -0.9144060596767309" fill="#ffffee"></path></g><rect data-v-528fb24a="" x="9.87782119837734" y="14.996759181505855" width="2.342940881384428" height="1.644056467927192" rx="1" stroke="none" fill="#ffffee"></rect><rect data-v-528fb24a="" x="23.77923792023823" y="14.996759181505855" width="2.342940881384428" height="1.644056467927192" rx="1" stroke="none" fill="#ffffee"></rect></g></g></svg>